<svg xmlns="http://www.w3.org/2000/svg" version="1.1" xmlns:xlink="http://www.w3.org/1999/xlink" xmlns:svgjs="http://svgjs.com/svgjs" width="1440" height="560" preserveAspectRatio="none" viewBox="0 0 1440 560"><g mask="url(&quot;#SvgjsMask1136&quot;)" fill="none"><rect width="1440" height="560" x="0" y="0" fill="rgba(7, 9, 13, 1)"></rect><path d="M1483.96 225.69C1306.68 228.61 1076.83 453.99 811.07 449.69 545.31 445.39 617.79-30.62 474.62-108.33" stroke="rgba(255, 255, 255, 0.58)" stroke-width="2"></path><path d="M1646.89 342.61C1514.87 343.73 1346.3 485 1136.16 477.01 926.02 469.02 995.12 69.49 880.8-4.76" stroke="rgba(255, 255, 255, 0.58)" stroke-width="2"></path><path d="M1533.2 95.76C1397.78 97.12 1275.95 241.96 1011.44 241.36 746.92 240.76 642.23-66.56 489.67-79.01" stroke="rgba(255, 255, 255, 0.58)" stroke-width="2"></path><path d="M1444.24 165.63C1296.14 171.38 1112.83 413.34 905.02 412.03 697.21 410.72 749.2 33.77 635.41-26.23" stroke="rgba(255, 255, 255, 0.58)" stroke-width="2"></path><path d="M1442.95 43.39C1267.05 48.96 1120.58 317.97 794.7 317.79 468.82 317.61 337.42-75.1 146.45-91.78" stroke="rgba(255, 255, 255, 0.58)" stroke-width="2"></path></g><defs><mask id="SvgjsMask1136"><rect width="1440" height="560" fill="#ffffff"></rect></mask></defs></svg>